<svg width="268" height="37" viewBox="0 0 268 37" fill="none" xmlns="http://www.w3.org/2000/svg">
<path d="M42.592 19.8071C43.3069 19.8071 43.9239 19.719 44.443 19.5427C44.9621 19.3566 45.3881 19.1069 45.7211 18.7935C46.0541 18.4703 46.2989 18.0932 46.4556 17.6623C46.6123 17.2314 46.6907 16.7613 46.6907 16.252C46.6907 15.2432 46.3528 14.4597 45.677 13.9015C45.011 13.3432 43.9925 13.0641 42.6214 13.0641H40.3296V19.8071H42.592ZM52.9195 31.0308H48.9383C48.194 31.0308 47.6553 30.7467 47.3224 30.1787L43.2677 23.6414C43.1013 23.3867 42.9152 23.2007 42.7095 23.0831C42.5136 22.9656 42.2198 22.9068 41.8281 22.9068H40.3296V31.0308H35.9224V9.71465H42.6214C44.11 9.71465 45.3832 9.87135 46.4409 10.1848C47.4986 10.4884 48.3654 10.9144 49.0412 11.4628C49.7169 12.0113 50.2115 12.6675 50.5249 13.4314C50.8383 14.1855 50.995 15.018 50.995 15.9288C50.995 16.6339 50.8922 17.3048 50.6865 17.9414C50.4906 18.5682 50.2017 19.1411 49.8198 19.6602C49.4378 20.1793 48.9677 20.6396 48.4095 21.0411C47.8512 21.4427 47.2146 21.7659 46.4997 22.0107C46.7837 22.1674 47.0481 22.3584 47.293 22.5836C47.5378 22.7991 47.7582 23.0586 47.9541 23.3623L52.9195 31.0308ZM75.255 20.3654C75.255 21.9226 74.9906 23.3671 74.4617 24.6991C73.9426 26.031 73.2032 27.1818 72.2434 28.1514C71.2934 29.121 70.1475 29.8849 68.8058 30.4431C67.4641 30.9916 65.9754 31.2658 64.3399 31.2658C62.7043 31.2658 61.2156 30.9916 59.8739 30.4431C58.5322 29.8849 57.3814 29.121 56.4216 28.1514C55.4618 27.1818 54.7175 26.031 54.1886 24.6991C53.6696 23.3671 53.41 21.9226 53.41 20.3654C53.41 18.8082 53.6696 17.3685 54.1886 16.0463C54.7175 14.7144 55.4618 13.5636 56.4216 12.594C57.3814 11.6244 58.5322 10.8654 59.8739 10.317C61.2156 9.75873 62.7043 9.4796 64.3399 9.4796C65.9754 9.4796 67.4641 9.75873 68.8058 10.317C70.1475 10.8654 71.2934 11.6293 72.2434 12.6087C73.2032 13.5783 73.9426 14.7291 74.4617 16.061C74.9906 17.3832 75.255 18.8179 75.255 20.3654ZM70.745 20.3654C70.745 19.2489 70.5981 18.2499 70.3042 17.3685C70.0104 16.4772 69.5844 15.7231 69.0262 15.1061C68.4777 14.4793 67.8068 14.0043 67.0135 13.6811C66.23 13.3481 65.3388 13.1816 64.3399 13.1816C63.3409 13.1816 62.4448 13.3481 61.6515 13.6811C60.8582 14.0043 60.1824 14.4793 59.6242 15.1061C59.0757 15.7231 58.6546 16.4772 58.3608 17.3685C58.0669 18.2499 57.92 19.2489 57.92 20.3654C57.92 21.4916 58.0669 22.5004 58.3608 23.3916C58.6546 24.2731 59.0757 25.0223 59.6242 25.6393C60.1824 26.2563 60.8582 26.7313 61.6515 27.0643C62.4448 27.3875 63.3409 27.5491 64.3399 27.5491C65.3388 27.5491 66.23 27.3875 67.0135 27.0643C67.8068 26.7313 68.4777 26.2563 69.0262 25.6393C69.5844 25.0223 70.0104 24.2731 70.3042 23.3916C70.5981 22.5004 70.745 21.4916 70.745 20.3654ZM86.8195 22.8334V31.0308H82.4123V22.8334L74.6703 9.71465H78.5487C78.9306 9.71465 79.2342 9.80769 79.4595 9.99378C79.6945 10.1701 79.8806 10.4002 80.0177 10.6842L83.5141 17.3979C83.7492 17.8484 83.9597 18.2695 84.1458 18.6612C84.3417 19.053 84.5131 19.4447 84.66 19.8365C84.7971 19.4447 84.9538 19.053 85.1301 18.6612C85.3162 18.2597 85.5218 17.8386 85.7471 17.3979L89.2141 10.6842C89.3316 10.4492 89.5079 10.2288 89.7429 10.0232C89.978 9.81749 90.2816 9.71465 90.6538 9.71465H94.5615L86.8195 22.8334ZM105.508 22.9362L103.201 16.4136C103.064 16.0708 102.917 15.6693 102.76 15.209C102.614 14.7486 102.472 14.2492 102.334 13.7105C102.197 14.259 102.05 14.7682 101.894 15.2383C101.747 15.6986 101.605 16.1002 101.468 16.443L99.1759 22.9362H105.508ZM112.912 31.0308H109.489C109.107 31.0308 108.793 30.9426 108.549 30.7663C108.314 30.5802 108.137 30.3452 108.02 30.0612L106.58 25.9919H98.0888L96.6491 30.0612C96.5512 30.306 96.3798 30.5313 96.135 30.7369C95.8901 30.9328 95.5816 31.0308 95.2095 31.0308H91.7572L100.087 9.71465H104.597L112.912 31.0308ZM127.533 27.4462V31.0308H114.885V9.71465H119.292V27.4462H127.533ZM141.782 13.7986C141.645 14.0239 141.503 14.1904 141.356 14.2981C141.219 14.3961 141.038 14.445 140.812 14.445C140.597 14.445 140.362 14.3716 140.107 14.2247C139.862 14.068 139.573 13.9015 139.241 13.7252C138.908 13.5489 138.526 13.3873 138.095 13.2404C137.664 13.0837 137.159 13.0054 136.581 13.0054C135.563 13.0054 134.799 13.2355 134.29 13.6958C133.78 14.1463 133.526 14.7389 133.526 15.4734C133.526 15.9435 133.663 16.3352 133.937 16.6486C134.221 16.9522 134.588 17.2167 135.039 17.4419C135.499 17.6672 136.018 17.868 136.596 18.0442C137.174 18.2205 137.767 18.4164 138.374 18.6319C138.981 18.8375 139.573 19.0824 140.151 19.3664C140.729 19.6504 141.243 20.0079 141.694 20.4388C142.154 20.8697 142.521 21.3986 142.796 22.0254C143.08 22.6424 143.222 23.3965 143.222 24.2878C143.222 25.2573 143.05 26.1682 142.707 27.0202C142.375 27.8625 141.89 28.6019 141.253 29.2385C140.617 29.8653 139.828 30.3599 138.888 30.7223C137.958 31.0846 136.9 31.2658 135.715 31.2658C135.039 31.2658 134.363 31.1973 133.687 31.0601C133.021 30.923 132.375 30.7321 131.748 30.4872C131.131 30.2424 130.549 29.9486 130 29.6058C129.452 29.263 128.972 28.881 128.56 28.4599L129.853 26.3738C129.961 26.2171 130.103 26.0898 130.279 25.9919C130.456 25.8841 130.642 25.8303 130.837 25.8303C131.102 25.8303 131.381 25.9282 131.675 26.1241C131.969 26.32 132.307 26.5354 132.688 26.7705C133.07 27.0055 133.511 27.221 134.011 27.4169C134.52 27.6127 135.127 27.7107 135.832 27.7107C136.861 27.7107 137.654 27.4756 138.212 27.0055C138.78 26.5354 139.064 25.8352 139.064 24.9048C139.064 24.3661 138.922 23.9303 138.638 23.5973C138.364 23.2643 138.002 22.9852 137.551 22.7599C137.101 22.5347 136.586 22.3437 136.009 22.187C135.431 22.0205 134.838 21.8393 134.231 21.6434C133.624 21.4476 133.031 21.2125 132.453 20.9383C131.876 20.6641 131.361 20.3017 130.911 19.8512C130.46 19.4007 130.093 18.8424 129.809 18.1765C129.535 17.5105 129.398 16.6829 129.398 15.6937C129.398 14.9004 129.554 14.1316 129.868 13.3873C130.181 12.643 130.642 11.9819 131.249 11.4041C131.856 10.8262 132.6 10.361 133.482 10.0085C134.373 9.65589 135.392 9.4796 136.537 9.4796C137.82 9.4796 139.005 9.68037 140.093 10.0819C141.189 10.4737 142.115 11.0221 142.869 11.7273L141.782 13.7986ZM161.235 28.7684C162.048 28.7684 162.748 28.6754 163.336 28.4893C163.923 28.3032 164.403 28.0437 164.775 27.7107C165.157 27.3679 165.436 26.9664 165.613 26.506C165.789 26.0359 165.877 25.5218 165.877 24.9635C165.877 23.8764 165.49 23.0195 164.717 22.3927C163.943 21.7561 162.782 21.4378 161.235 21.4378H156.681V28.7684H161.235ZM156.681 12.2268V19.4105H160.442C161.245 19.4105 161.94 19.3223 162.528 19.146C163.125 18.9698 163.615 18.7249 163.997 18.4115C164.388 18.0981 164.677 17.721 164.863 17.2803C165.05 16.8298 165.143 16.3401 165.143 15.8113C165.143 14.5675 164.77 13.6615 164.026 13.0935C163.282 12.5157 162.126 12.2268 160.559 12.2268H156.681ZM160.559 9.97908C161.852 9.97908 162.963 10.1064 163.894 10.361C164.834 10.6157 165.603 10.978 166.2 11.4481C166.808 11.9182 167.253 12.4961 167.537 13.1816C167.821 13.8574 167.963 14.6213 167.963 15.4734C167.963 15.9925 167.88 16.4919 167.713 16.9718C167.557 17.4419 167.317 17.8826 166.994 18.294C166.67 18.7053 166.259 19.0775 165.76 19.4105C165.27 19.7337 164.692 19.9981 164.026 20.2038C165.574 20.4976 166.734 21.0509 167.508 21.8638C168.291 22.6669 168.683 23.7246 168.683 25.037C168.683 25.9282 168.517 26.7411 168.184 27.4756C167.86 28.2102 167.38 28.8419 166.744 29.3707C166.117 29.8996 165.343 30.3109 164.423 30.6047C163.502 30.8888 162.454 31.0308 161.279 31.0308H153.846V9.97908H160.559ZM180.964 28.7684C181.836 28.7684 182.614 28.6215 183.3 28.3277C183.985 28.0339 184.563 27.6225 185.033 27.0937C185.513 26.5648 185.876 25.9331 186.12 25.1986C186.375 24.464 186.502 23.6561 186.502 22.7746V9.97908H189.338V22.7746C189.338 23.9891 189.142 25.1153 188.75 26.1535C188.368 27.1916 187.815 28.0926 187.09 28.8565C186.375 29.6107 185.498 30.2032 184.46 30.6341C183.422 31.065 182.257 31.2805 180.964 31.2805C179.671 31.2805 178.506 31.065 177.468 30.6341C176.429 30.2032 175.548 29.6107 174.823 28.8565C174.099 28.0926 173.54 27.1916 173.149 26.1535C172.767 25.1153 172.576 23.9891 172.576 22.7746V9.97908H175.411V22.7599C175.411 23.6414 175.533 24.4494 175.778 25.1839C176.033 25.9184 176.395 26.5501 176.865 27.079C177.345 27.6078 177.928 28.0241 178.613 28.3277C179.309 28.6215 180.092 28.7684 180.964 28.7684ZM200.278 20.1744C201.1 20.1744 201.825 20.0764 202.452 19.8806C203.089 19.6749 203.617 19.3909 204.039 19.0285C204.47 18.6564 204.793 18.2156 205.008 17.7064C205.224 17.1971 205.331 16.6339 205.331 16.0169C205.331 14.7633 204.92 13.8182 204.097 13.1816C203.275 12.545 202.041 12.2268 200.395 12.2268H197.281V20.1744H200.278ZM210.003 31.0308H207.476C206.957 31.0308 206.575 30.83 206.33 30.4284L200.865 22.9068C200.699 22.6718 200.518 22.5053 200.322 22.4074C200.136 22.2996 199.842 22.2458 199.44 22.2458H197.281V31.0308H194.446V9.97908H200.395C201.727 9.97908 202.878 10.1162 203.848 10.3904C204.817 10.6549 205.615 11.0417 206.242 11.551C206.879 12.0603 207.349 12.6773 207.652 13.402C207.956 14.1169 208.108 14.92 208.108 15.8113C208.108 16.5556 207.99 17.2509 207.755 17.8973C207.52 18.5437 207.177 19.1265 206.727 19.6455C206.286 20.1548 205.743 20.5906 205.096 20.953C204.46 21.3154 203.735 21.5896 202.922 21.7757C203.284 21.9813 203.598 22.28 203.862 22.6718L210.003 31.0308ZM229.765 20.9089V28.9888C228.708 29.7527 227.576 30.3256 226.372 30.7076C225.177 31.0797 223.865 31.2658 222.435 31.2658C220.74 31.2658 219.213 31.0063 217.851 30.4872C216.49 29.9583 215.324 29.2238 214.355 28.2836C213.395 27.3336 212.656 26.1975 212.137 24.8754C211.617 23.5532 211.358 22.0989 211.358 20.5123C211.358 18.9061 211.608 17.4419 212.107 16.1198C212.616 14.7976 213.336 13.6664 214.267 12.7262C215.197 11.7762 216.328 11.0417 217.66 10.5226C218.992 10.0036 220.481 9.74403 222.126 9.74403C222.959 9.74403 223.732 9.80769 224.447 9.93501C225.162 10.0525 225.823 10.2288 226.431 10.4639C227.038 10.6891 227.601 10.9683 228.12 11.3012C228.639 11.6244 229.124 11.9917 229.574 12.403L228.766 13.6958C228.639 13.8917 228.473 14.019 228.267 14.0778C228.071 14.1267 227.851 14.0778 227.606 13.9309C227.371 13.7938 227.101 13.6273 226.798 13.4314C226.494 13.2355 226.122 13.0494 225.681 12.8731C225.25 12.6871 224.736 12.5304 224.139 12.403C223.551 12.2757 222.851 12.2121 222.038 12.2121C220.853 12.2121 219.781 12.4079 218.821 12.7997C217.861 13.1816 217.043 13.735 216.367 14.4597C215.692 15.1747 215.173 16.0463 214.81 17.0747C214.448 18.0932 214.267 19.2391 214.267 20.5123C214.267 21.8344 214.453 23.0195 214.825 24.0674C215.207 25.1055 215.746 25.9919 216.441 26.7264C217.146 27.4511 217.998 28.0045 218.997 28.3864C219.996 28.7684 221.117 28.9594 222.361 28.9594C223.341 28.9594 224.207 28.8517 224.961 28.6362C225.725 28.4109 226.47 28.1024 227.194 27.7107V23.0831H223.918C223.732 23.0831 223.581 23.0293 223.463 22.9215C223.355 22.8138 223.301 22.6816 223.301 22.5249V20.9089H229.765ZM247.114 28.7096L247.099 31.0308H234.128V9.97908H247.099V12.3002H236.978V19.2929H245.175V21.5259H236.978V28.7096H247.114ZM256.917 20.1744C257.74 20.1744 258.464 20.0764 259.091 19.8806C259.728 19.6749 260.257 19.3909 260.678 19.0285C261.109 18.6564 261.432 18.2156 261.647 17.7064C261.863 17.1971 261.971 16.6339 261.971 16.0169C261.971 14.7633 261.559 13.8182 260.737 13.1816C259.914 12.545 258.68 12.2268 257.035 12.2268H253.92V20.1744H256.917ZM266.642 31.0308H264.115C263.596 31.0308 263.214 30.83 262.97 30.4284L257.505 22.9068C257.338 22.6718 257.157 22.5053 256.961 22.4074C256.775 22.2996 256.481 22.2458 256.08 22.2458H253.92V31.0308H251.085V9.97908H257.035C258.367 9.97908 259.517 10.1162 260.487 10.3904C261.456 10.6549 262.255 11.0417 262.881 11.551C263.518 12.0603 263.988 12.6773 264.292 13.402C264.595 14.1169 264.747 14.92 264.747 15.8113C264.747 16.5556 264.63 17.2509 264.395 17.8973C264.16 18.5437 263.817 19.1265 263.366 19.6455C262.926 20.1548 262.382 20.5906 261.736 20.953C261.099 21.3154 260.374 21.5896 259.561 21.7757C259.924 21.9813 260.237 22.28 260.502 22.6718L266.642 31.0308Z" fill="#1D0605" fill-opacity="0.9"/>
<g clip-path="url(#clip0_1010_1092)">
<path d="M26.0281 25.8124V28.0241C25.958 28.3081 25.9103 28.5999 25.8156 28.8755C25.2236 30.5937 23.7286 31.6468 21.8896 31.6506C17.0983 31.6506 12.307 31.6506 7.51565 31.6506C7.4048 31.6506 7.29472 31.6506 7.18386 31.6422C5.36942 31.5506 3.76051 30.1726 3.4726 28.382C3.35405 27.6392 3.39562 26.8701 3.38023 26.1126C3.36791 25.4968 3.68815 25.1889 4.30015 25.1889C7.99524 25.1889 11.6883 25.1889 15.3793 25.1889C15.6457 25.1854 15.9054 25.2732 16.1152 25.4375C16.8907 26.0251 17.6684 26.6092 18.4485 27.1896C18.547 27.2666 18.6471 27.3351 18.7487 27.409C19.6386 26.7385 20.5093 26.0849 21.3784 25.4283C21.5885 25.2641 21.8486 25.1771 22.1151 25.1819C23.0812 25.1889 24.0473 25.1989 25.0119 25.1819C25.5084 25.1681 25.851 25.3397 26.0281 25.8124Z" fill="#1D0605" fill-opacity="0.9"/>
<path d="M29.4923 5.37683C29.2614 6.25672 29.0304 7.13508 28.8072 8.01651C27.9773 11.3267 27.151 14.6369 26.3284 17.9471C26.2806 18.1411 26.2052 18.2034 26.0027 18.2034C18.4848 18.1978 10.9663 18.196 3.44728 18.198C3.38107 18.198 3.3141 18.1919 3.21634 18.1865C3.06237 17.5868 2.90841 16.9856 2.75984 16.3828C1.85916 12.7842 0.961047 9.18508 0.0654999 5.58545C0.00977727 5.40263 -0.00957539 5.21067 0.00853463 5.02041C0.113229 4.37376 0.859176 4.09663 1.39419 4.50694C2.24099 5.16513 3.07777 5.8441 3.91764 6.51538L7.51496 9.39447C8.02612 9.80324 8.10156 10.0527 7.89448 10.6662C7.75073 11.0735 7.76355 11.5197 7.93043 11.918C8.09731 12.3164 8.40635 12.6385 8.79746 12.8217C9.17927 13.001 9.61336 13.0351 10.0185 12.9175C10.4236 12.7999 10.772 12.5387 10.9984 12.1827C11.2288 11.8233 11.3183 11.3915 11.2499 10.9701C11.1814 10.5487 10.9597 10.1674 10.6273 9.89947C10.1215 9.47915 10.0515 9.15429 10.3432 8.56923C11.5236 6.20232 12.7055 3.83464 13.889 1.46619C14.0691 1.10284 14.3147 0.841104 14.7358 0.840334C15.1569 0.839564 15.4078 1.09745 15.5887 1.46157C16.7691 3.83105 17.9508 6.19847 19.1337 8.56384C19.427 9.15121 19.3562 9.48762 18.8574 9.89639C18.5237 10.1635 18.3009 10.5448 18.2319 10.9667C18.163 11.3885 18.2528 11.8209 18.484 12.1804C18.7091 12.5371 19.0566 12.7996 19.4613 12.9186C19.866 13.0376 20.3002 13.0051 20.6826 12.8271C21.0699 12.6477 21.3776 12.3321 21.547 11.9403C21.7164 11.5486 21.7356 11.1082 21.601 10.7031C21.3846 10.0334 21.447 9.82172 21.9859 9.386C23.9643 7.80173 25.9429 6.21849 27.9219 4.63627C28.5816 4.10895 29.1066 4.22442 29.4923 4.97499V5.37683Z" fill="#1D0605" fill-opacity="0.9"/>
<path d="M3.45605 19.9526H26.0277V20.2467C26.0277 20.9572 26.0277 21.6678 26.0277 22.3783C26.0277 23.0658 25.6882 23.4037 25 23.4037H4.52302C3.78015 23.4037 3.45991 23.0788 3.45914 22.326C3.45914 21.6347 3.45914 20.9436 3.45914 20.2529L3.45605 19.9526Z" fill="#1D0605" fill-opacity="0.9"/>
</g>
<defs>
<clipPath id="clip0_1010_1092">
<rect width="29.4922" height="30.8086" fill="white" transform="translate(0 0.84375)"/>
</clipPath>
</defs>
</svg>
