<svg width="268" height="37" viewBox="0 0 268 37" fill="none" xmlns="http://www.w3.org/2000/svg">
<path d="M42.624 20.1459C43.3395 20.1459 43.9569 20.0577 44.4764 19.8813C44.9959 19.6951 45.4222 19.4451 45.7554 19.1315C46.0887 18.8081 46.3337 18.4307 46.4905 17.9995C46.6473 17.5682 46.7257 17.0978 46.7257 16.5881C46.7257 15.5786 46.3876 14.7945 45.7113 14.2359C45.0449 13.6772 44.0256 13.3979 42.6534 13.3979H40.36V20.1459H42.624ZM52.9592 31.3779H48.9751C48.2302 31.3779 47.6912 31.0937 47.3579 30.5252L43.3003 23.983C43.1337 23.7282 42.9474 23.542 42.7416 23.4244C42.5456 23.3068 42.2516 23.248 41.8595 23.248H40.36V31.3779H35.9495V10.0459H42.6534C44.1432 10.0459 45.4173 10.2027 46.4758 10.5164C47.5343 10.8202 48.4017 11.2466 49.078 11.7954C49.7543 12.3443 50.2492 13.0009 50.5629 13.7654C50.8765 14.5201 51.0333 15.3532 51.0333 16.2647C51.0333 16.9704 50.9304 17.6417 50.7246 18.2788C50.5286 18.9061 50.2394 19.4794 49.8572 19.9989C49.4749 20.5184 49.0045 20.979 48.4458 21.3809C47.8872 21.7827 47.2501 22.1061 46.5346 22.3512C46.8189 22.508 47.0835 22.6991 47.3285 22.9245C47.5735 23.1401 47.7941 23.3999 47.9901 23.7037L52.9592 31.3779ZM75.3114 20.7046C75.3114 22.2629 75.0467 23.7086 74.5175 25.0415C73.998 26.3745 73.258 27.5261 72.2975 28.4964C71.3468 29.4667 70.2001 30.2312 68.8574 30.7899C67.5146 31.3387 66.0249 31.6132 64.3881 31.6132C62.7513 31.6132 61.2616 31.3387 59.9188 30.7899C58.5761 30.2312 57.4244 29.4667 56.4639 28.4964C55.5034 27.5261 54.7586 26.3745 54.2293 25.0415C53.7098 23.7086 53.4501 22.2629 53.4501 20.7046C53.4501 19.1462 53.7098 17.7055 54.2293 16.3823C54.7586 15.0494 55.5034 13.8977 56.4639 12.9274C57.4244 11.9571 58.5761 11.1976 59.9188 10.6487C61.2616 10.09 62.7513 9.8107 64.3881 9.8107C66.0249 9.8107 67.5146 10.09 68.8574 10.6487C70.2001 11.1976 71.3468 11.962 72.2975 12.9421C73.258 13.9124 73.998 15.0641 74.5175 16.397C75.0467 17.7202 75.3114 19.156 75.3114 20.7046ZM70.798 20.7046C70.798 19.5873 70.651 18.5876 70.3569 17.7055C70.0629 16.8136 69.6366 16.0589 69.0779 15.4414C68.529 14.8141 67.8577 14.3388 67.0638 14.0154C66.2797 13.6821 65.3878 13.5155 64.3881 13.5155C63.3884 13.5155 62.4916 13.6821 61.6977 14.0154C60.9038 14.3388 60.2275 14.8141 59.6689 15.4414C59.12 16.0589 58.6986 16.8136 58.4045 17.7055C58.1105 18.5876 57.9635 19.5873 57.9635 20.7046C57.9635 21.8317 58.1105 22.8412 58.4045 23.7331C58.6986 24.6152 59.12 25.365 59.6689 25.9824C60.2275 26.5999 60.9038 27.0753 61.6977 27.4085C62.4916 27.7319 63.3884 27.8937 64.3881 27.8937C65.3878 27.8937 66.2797 27.7319 67.0638 27.4085C67.8577 27.0753 68.529 26.5999 69.0779 25.9824C69.6366 25.365 70.0629 24.6152 70.3569 23.7331C70.651 22.8412 70.798 21.8317 70.798 20.7046ZM86.8845 23.1744V31.3779H82.474V23.1744L74.7263 10.0459H78.6075C78.9897 10.0459 79.2936 10.139 79.519 10.3253C79.7542 10.5017 79.9405 10.732 80.0777 11.0162L83.5766 17.7349C83.8119 18.1857 84.0226 18.6072 84.2088 18.9992C84.4048 19.3912 84.5764 19.7833 84.7234 20.1753C84.8606 19.7833 85.0174 19.3912 85.1938 18.9992C85.38 18.5974 85.5859 18.1759 85.8113 17.7349L89.2809 11.0162C89.3985 10.781 89.5749 10.5605 89.8101 10.3547C90.0453 10.1488 90.3492 10.0459 90.7216 10.0459H94.6322L86.8845 23.1744ZM105.587 23.2774L103.278 16.7499C103.141 16.4068 102.994 16.005 102.837 15.5443C102.69 15.0837 102.548 14.5838 102.411 14.0448C102.274 14.5936 102.127 15.1033 101.97 15.5737C101.823 16.0344 101.681 16.4362 101.544 16.7793L99.2501 23.2774H105.587ZM112.996 31.3779H109.571C109.188 31.3779 108.875 31.2897 108.63 31.1133C108.395 30.9271 108.218 30.6919 108.1 30.4076L106.66 26.3353H98.1622L96.7215 30.4076C96.6235 30.6527 96.4519 30.8781 96.2069 31.0839C95.9619 31.2799 95.6532 31.3779 95.2807 31.3779H91.8258L100.162 10.0459H104.675L112.996 31.3779ZM127.629 27.7907V31.3779H114.97V10.0459H119.381V27.7907H127.629ZM141.888 14.133C141.751 14.3584 141.609 14.525 141.462 14.6328C141.324 14.7308 141.143 14.7798 140.918 14.7798C140.702 14.7798 140.467 14.7063 140.212 14.5593C139.967 14.4025 139.678 14.2359 139.345 14.0595C139.011 13.883 138.629 13.7213 138.198 13.5743C137.767 13.4175 137.262 13.3391 136.684 13.3391C135.664 13.3391 134.9 13.5694 134.39 14.0301C133.88 14.4809 133.626 15.0739 133.626 15.809C133.626 16.2794 133.763 16.6714 134.037 16.9851C134.322 17.2889 134.689 17.5535 135.14 17.779C135.601 18.0044 136.12 18.2053 136.698 18.3817C137.277 18.5581 137.87 18.7542 138.477 18.9698C139.085 19.1756 139.678 19.4206 140.256 19.7049C140.834 19.9891 141.349 20.3468 141.8 20.7781C142.26 21.2093 142.628 21.7386 142.902 22.3659C143.187 22.9833 143.329 23.738 143.329 24.6299C143.329 25.6002 143.157 26.5117 142.814 27.3644C142.481 28.2073 141.996 28.9473 141.359 29.5843C140.722 30.2116 139.933 30.7066 138.992 31.0692C138.061 31.4318 137.002 31.6132 135.816 31.6132C135.14 31.6132 134.464 31.5445 133.787 31.4073C133.121 31.2701 132.474 31.079 131.847 30.834C131.229 30.5889 130.646 30.2949 130.097 29.9519C129.548 29.6088 129.068 29.2266 128.657 28.8052L129.95 26.7175C130.058 26.5607 130.2 26.4333 130.377 26.3353C130.553 26.2275 130.739 26.1736 130.935 26.1736C131.2 26.1736 131.479 26.2716 131.773 26.4676C132.067 26.6636 132.405 26.8792 132.788 27.1145C133.17 27.3497 133.611 27.5653 134.111 27.7613C134.62 27.9574 135.228 28.0554 135.934 28.0554C136.963 28.0554 137.757 27.8201 138.315 27.3497C138.884 26.8792 139.168 26.1785 139.168 25.2474C139.168 24.7083 139.026 24.2722 138.742 23.9389C138.467 23.6057 138.105 23.3264 137.654 23.1009C137.203 22.8755 136.688 22.6844 136.11 22.5276C135.532 22.361 134.939 22.1796 134.331 21.9836C133.724 21.7876 133.131 21.5524 132.552 21.2779C131.974 21.0035 131.46 20.6409 131.009 20.19C130.558 19.7392 130.19 19.1805 129.906 18.514C129.632 17.8476 129.495 17.0194 129.495 16.0295C129.495 15.2356 129.651 14.4662 129.965 13.7213C130.279 12.9764 130.739 12.3149 131.347 11.7366C131.955 11.1583 132.699 10.6928 133.582 10.34C134.473 9.98712 135.493 9.8107 136.639 9.8107C137.923 9.8107 139.109 10.0116 140.197 10.4135C141.295 10.8055 142.221 11.3544 142.976 12.06L141.888 14.133ZM161.355 29.1139C162.169 29.1139 162.87 29.0208 163.458 28.8346C164.046 28.6483 164.526 28.3886 164.898 28.0554C165.281 27.7123 165.56 27.3105 165.736 26.8498C165.913 26.3794 166.001 25.8648 166.001 25.3062C166.001 24.2183 165.614 23.3607 164.84 22.7334C164.065 22.0963 162.904 21.7778 161.355 21.7778H156.798V29.1139H161.355ZM156.798 12.5599V19.749H160.561C161.365 19.749 162.061 19.6608 162.649 19.4843C163.247 19.3079 163.737 19.0629 164.119 18.7493C164.511 18.4356 164.8 18.0583 164.987 17.6172C165.173 17.1664 165.266 16.6763 165.266 16.1471C165.266 14.9024 164.894 13.9958 164.149 13.4273C163.404 12.849 162.247 12.5599 160.679 12.5599H156.798ZM160.679 10.3106C161.973 10.3106 163.085 10.438 164.016 10.6928C164.957 10.9476 165.727 11.3103 166.325 11.7807C166.932 12.2512 167.378 12.8294 167.662 13.5155C167.947 14.1918 168.089 14.9563 168.089 15.809C168.089 16.3284 168.005 16.8283 167.839 17.3085C167.682 17.779 167.442 18.22 167.118 18.6317C166.795 19.0433 166.383 19.4157 165.883 19.749C165.393 20.0724 164.815 20.337 164.149 20.5429C165.697 20.8369 166.859 21.3907 167.633 22.2041C168.417 23.0078 168.809 24.0663 168.809 25.3797C168.809 26.2716 168.642 27.0851 168.309 27.8201C167.986 28.5552 167.506 29.1874 166.868 29.7167C166.241 30.2459 165.467 30.6576 164.546 30.9516C163.624 31.2358 162.576 31.3779 161.399 31.3779H153.96V10.3106H160.679ZM181.099 29.1139C181.971 29.1139 182.751 28.9669 183.437 28.6728C184.123 28.3788 184.701 27.9672 185.171 27.4379C185.652 26.9086 186.014 26.2765 186.259 25.5414C186.514 24.8063 186.642 23.9977 186.642 23.1156V10.3106H189.479V23.1156C189.479 24.331 189.283 25.4581 188.891 26.497C188.509 27.5359 187.955 28.4376 187.23 29.2021C186.514 29.9568 185.637 30.5497 184.598 30.981C183.559 31.4122 182.393 31.6279 181.099 31.6279C179.805 31.6279 178.639 31.4122 177.6 30.981C176.561 30.5497 175.679 29.9568 174.954 29.2021C174.229 28.4376 173.67 27.5359 173.278 26.497C172.896 25.4581 172.705 24.331 172.705 23.1156V10.3106H175.542V23.1009C175.542 23.983 175.664 24.7916 175.909 25.5267C176.164 26.2618 176.527 26.8939 176.997 27.4232C177.478 27.9525 178.061 28.369 178.747 28.6728C179.443 28.9669 180.227 29.1139 181.099 29.1139ZM200.427 20.5135C201.251 20.5135 201.976 20.4154 202.603 20.2194C203.24 20.0136 203.77 19.7294 204.191 19.3667C204.622 18.9943 204.946 18.5532 205.161 18.0436C205.377 17.5339 205.485 16.9704 205.485 16.3529C205.485 15.0984 205.073 14.1526 204.25 13.5155C203.426 12.8784 202.192 12.5599 200.545 12.5599H197.428V20.5135H200.427ZM210.16 31.3779H207.631C207.112 31.3779 206.729 31.177 206.484 30.7752L201.015 23.248C200.849 23.0127 200.667 22.8461 200.471 22.7481C200.285 22.6403 199.991 22.5864 199.589 22.5864H197.428V31.3779H194.591V10.3106H200.545C201.878 10.3106 203.03 10.4478 204 10.7222C204.97 10.9868 205.769 11.374 206.396 11.8836C207.033 12.3933 207.504 13.0108 207.808 13.736C208.111 14.4515 208.263 15.2552 208.263 16.1471C208.263 16.892 208.146 17.5878 207.91 18.2347C207.675 18.8816 207.332 19.4647 206.881 19.9842C206.44 20.4939 205.896 20.93 205.249 21.2926C204.612 21.6553 203.887 21.9297 203.074 22.1159C203.436 22.3218 203.75 22.6207 204.015 23.0127L210.16 31.3779ZM229.937 21.2485V29.3344C228.878 30.0989 227.746 30.6723 226.541 31.0545C225.345 31.4269 224.032 31.6132 222.601 31.6132C220.905 31.6132 219.376 31.3534 218.014 30.834C216.652 30.3047 215.485 29.5696 214.515 28.6287C213.554 27.678 212.814 26.5411 212.295 25.218C211.776 23.8948 211.516 22.4394 211.516 20.8516C211.516 19.2442 211.766 17.779 212.266 16.4558C212.775 15.1327 213.496 14.0007 214.427 13.0598C215.358 12.1091 216.49 11.374 217.823 10.8545C219.156 10.3351 220.645 10.0753 222.292 10.0753C223.125 10.0753 223.899 10.139 224.615 10.2665C225.33 10.3841 225.992 10.5605 226.6 10.7957C227.207 11.0211 227.771 11.3005 228.29 11.6337C228.81 11.9571 229.295 12.3247 229.746 12.7363L228.937 14.0301C228.81 14.2261 228.643 14.3535 228.437 14.4123C228.241 14.4613 228.021 14.4123 227.776 14.2653C227.541 14.1281 227.271 13.9615 226.967 13.7654C226.663 13.5694 226.291 13.3832 225.85 13.2068C225.419 13.0206 224.904 12.8637 224.306 12.7363C223.718 12.6089 223.017 12.5452 222.204 12.5452C221.018 12.5452 219.945 12.7412 218.984 13.1333C218.024 13.5155 217.205 14.0693 216.529 14.7945C215.853 15.51 215.333 16.3823 214.971 17.4114C214.608 18.4307 214.427 19.5775 214.427 20.8516C214.427 22.1747 214.613 23.3607 214.985 24.4094C215.368 25.4483 215.907 26.3353 216.603 27.0704C217.308 27.7956 218.161 28.3494 219.161 28.7316C220.16 29.1139 221.283 29.305 222.527 29.305C223.507 29.305 224.375 29.1972 225.129 28.9816C225.894 28.7561 226.639 28.4474 227.364 28.0554V23.4244H224.086C223.899 23.4244 223.748 23.3705 223.63 23.2627C223.522 23.1548 223.468 23.0225 223.468 22.8657V21.2485H229.937ZM247.299 29.0551L247.284 31.3779H234.302V10.3106H247.284V12.6334H237.154V19.6314H245.358V21.866H237.154V29.0551H247.299ZM257.109 20.5135C257.932 20.5135 258.657 20.4154 259.285 20.2194C259.922 20.0136 260.451 19.7294 260.872 19.3667C261.304 18.9943 261.627 18.5532 261.843 18.0436C262.058 17.5339 262.166 16.9704 262.166 16.3529C262.166 15.0984 261.755 14.1526 260.931 13.5155C260.108 12.8784 258.873 12.5599 257.226 12.5599H254.11V20.5135H257.109ZM266.841 31.3779H264.313C263.793 31.3779 263.411 31.177 263.166 30.7752L257.697 23.248C257.53 23.0127 257.349 22.8461 257.153 22.7481C256.967 22.6403 256.673 22.5864 256.271 22.5864H254.11V31.3779H251.272V10.3106H257.226C258.559 10.3106 259.711 10.4478 260.681 10.7222C261.652 10.9868 262.45 11.374 263.078 11.8836C263.715 12.3933 264.185 13.0108 264.489 13.736C264.793 14.4515 264.945 15.2552 264.945 16.1471C264.945 16.892 264.827 17.5878 264.592 18.2347C264.357 18.8816 264.014 19.4647 263.563 19.9842C263.122 20.4939 262.578 20.93 261.931 21.2926C261.294 21.6553 260.569 21.9297 259.755 22.1159C260.118 22.3218 260.431 22.6207 260.696 23.0127L266.841 31.3779Z" fill="#F59A1B"/>
<g clip-path="url(#clip0_1010_1307)">
<path d="M26.0479 25.1757V27.389C25.9778 27.6732 25.93 27.9652 25.8353 28.241C25.2428 29.9605 23.7467 31.0144 21.9063 31.0183C17.1114 31.0183 12.3165 31.0183 7.52166 31.0183C7.41073 31.0183 7.30056 31.0183 7.18963 31.0098C5.37383 30.9181 3.76373 29.5391 3.4756 27.7472C3.35696 27.0038 3.39856 26.2342 3.38316 25.4761C3.37083 24.8598 3.69131 24.5516 4.30377 24.5516C8.00161 24.5516 11.6974 24.5516 15.3911 24.5516C15.6578 24.5482 15.9177 24.636 16.1276 24.8005C16.9037 25.3885 17.682 25.973 18.4627 26.5539C18.5613 26.6309 18.6614 26.6995 18.7631 26.7734C19.6537 26.1024 20.525 25.4484 21.3948 24.7912C21.605 24.627 21.8653 24.5399 22.132 24.5447C23.0988 24.5516 24.0657 24.5617 25.031 24.5447C25.5279 24.5308 25.8707 24.7026 26.0479 25.1757Z" fill="#F43127"/>
<path d="M29.5143 4.72543C29.2832 5.60598 29.052 6.48498 28.8286 7.36707C27.9982 10.6797 27.1713 13.9924 26.348 17.305C26.3002 17.4992 26.2247 17.5616 26.0221 17.5616C18.4985 17.5559 10.9745 17.5541 3.44985 17.5562C3.38359 17.5562 3.31657 17.55 3.21873 17.5446C3.06465 16.9445 2.91058 16.3428 2.76189 15.7396C1.86054 12.1383 0.961762 8.53652 0.0655473 4.9342C0.0097831 4.75125 -0.00958399 4.55914 0.00853954 4.36874C0.113312 3.72161 0.859815 3.44428 1.39523 3.85489C2.24266 4.51357 3.08007 5.19305 3.92056 5.86482L7.52056 8.74606C8.0321 9.15514 8.1076 9.40474 7.90036 10.0187C7.75651 10.4263 7.76933 10.8728 7.93634 11.2715C8.10335 11.6701 8.41261 11.9925 8.80402 12.1758C9.18611 12.3553 9.62053 12.3894 10.0259 12.2717C10.4314 12.154 10.78 11.8926 11.0066 11.5364C11.2371 11.1767 11.3268 10.7446 11.2582 10.3228C11.1897 9.90113 10.9678 9.51959 10.6352 9.25144C10.1291 8.83081 10.059 8.5057 10.351 7.92021C11.5322 5.55153 12.715 3.18209 13.8993 0.811872C14.0796 0.44825 14.3254 0.186319 14.7468 0.185549C15.1682 0.184778 15.4193 0.442858 15.6004 0.80725C16.7816 3.17849 17.9642 5.54768 19.148 7.91482C19.4415 8.50262 19.3706 8.83928 18.8714 9.24835C18.5375 9.5157 18.3145 9.8973 18.2455 10.3194C18.1765 10.7416 18.2664 11.1743 18.4978 11.5341C18.7231 11.8911 19.0708 12.1537 19.4758 12.2728C19.8808 12.3919 20.3153 12.3594 20.698 12.1812C21.0856 12.0018 21.3936 11.6859 21.5631 11.2938C21.7326 10.9018 21.7518 10.461 21.6171 10.0557C21.4006 9.38548 21.463 9.17363 22.0023 8.73759C23.9821 7.15214 25.9623 5.56771 27.9427 3.98432C28.6029 3.4566 29.1283 3.57216 29.5143 4.32328V4.72543Z" fill="#F43127"/>
<path d="M3.45898 19.3115H26.0474V19.6058C26.0474 20.3169 26.0474 21.0279 26.0474 21.739C26.0474 22.427 25.7077 22.7652 25.019 22.7652H4.52674C3.78332 22.7652 3.46284 22.4401 3.46207 21.6866C3.46207 20.9948 3.46207 20.3033 3.46207 19.612L3.45898 19.3115Z" fill="#F43127"/>
</g>
<defs>
<clipPath id="clip0_1010_1307">
<rect width="29.5142" height="30.8316" fill="white" transform="translate(0 0.188477)"/>
</clipPath>
</defs>
</svg>
